# xmcd CD database file
#
# Track frame offsets:
#	150
#	21142
#	35452
#	52345
#	69300
#	82405
#	96125
#	111312
#	124835
#	142002
#	157180
#	171355
#	191405
#	206667
#
# Disc length: 2957 seconds
#
# Revision: 0
# Processed by: cddbd v1.5.2PL0 Copyright (c) Steve Scherf et al.
# Submitted via: CDex 1.51
#
DISCID=d50b8b0e
DTITLE=Gunter Gabriel - Strassenhund
DYEAR=1994
DGENRE=Country
TTITLE0=Ich bin ein Strassenhund
TTITLE1=Den Rocker kriegst du nicht mehr aus mir raus
TTITLE2=Liebst du nen arbeitslosen Star
TTITLE3=Sechs Tage auf`m Bock
TTITLE4=Einfache Fakten
TTITLE5=Der letzte Wagen ist immer ein Kombi
TTITLE6=Harry und Oskar
TTITLE7=Papa liebt Mama
TTITLE8=Du bist das Gold in meinem Leben
TTITLE9=Ich werd gesucht in Bremerhaven
TTITLE10=Flensburg
TTITLE11=Ruf Teddybaer eins-vier
TTITLE12=Truck Stop, Tom Astor und ich
TTITLE13=Willkommen im deutschen Wunderland
EXTD=YEAR: 1994
EXTT0=
EXTT1=
EXTT2=
EXTT3=
EXTT4=
EXTT5=
EXTT6=
EXTT7=
EXTT8=
EXTT9=
EXTT10=
EXTT11=
EXTT12=
EXTT13=
PLAYORDER=
